<svg width="16" height="16" viewBox="0 0 16 16" fill="none" xmlns="http://www.w3.org/2000/svg">
<path d="M11.0964 5.17508C11.0964 5.09651 11.0321 5.03223 10.9536 5.03223L9.77499 5.03758L7.99999 7.15366L6.22678 5.03937L5.04642 5.03401C4.96785 5.03401 4.90356 5.09651 4.90356 5.17687C4.90356 5.2108 4.91606 5.24294 4.93749 5.26973L7.26071 8.03758L4.93749 10.8037C4.91591 10.8298 4.90394 10.8626 4.90356 10.8965C4.90356 10.9751 4.96785 11.0394 5.04642 11.0394L6.22678 11.034L7.99999 8.91794L9.77321 11.0322L10.9518 11.0376C11.0304 11.0376 11.0946 10.9751 11.0946 10.8947C11.0946 10.8608 11.0821 10.8287 11.0607 10.8019L8.74106 8.0358L11.0643 5.26794C11.0857 5.24294 11.0964 5.20901 11.0964 5.17508Z" fill="#C63135"/>
<path d="M8 0C3.58214 0 0 3.58214 0 8C0 12.4179 3.58214 16 8 16C12.4179 16 16 12.4179 16 8C16 3.58214 12.4179 0 8 0ZM8 14.6429C4.33214 14.6429 1.35714 11.6679 1.35714 8C1.35714 4.33214 4.33214 1.35714 8 1.35714C11.6679 1.35714 14.6429 4.33214 14.6429 8C14.6429 11.6679 11.6679 14.6429 8 14.6429Z" fill="#C63135"/>
</svg>
