<svg width="72" height="43" viewBox="0 0 72 43" fill="none" xmlns="http://www.w3.org/2000/svg">
<rect width="71.9566" height="43" rx="10" fill="url(#paint0_linear_0_1120)"/>
<mask id="mask0_0_1120" style="mask-type:luminance" maskUnits="userSpaceOnUse" x="0" y="0" width="72" height="43">
<rect width="71.9566" height="43" rx="10" fill="white"/>
</mask>
<g mask="url(#mask0_0_1120)">
<rect width="71.9566" height="43" fill="#415A6B"/>
<rect x="7.07573" y="34.9509" width="8.05994" height="3.74905" fill="#344A5E"/>
<rect x="19.3149" y="34.9509" width="8.05993" height="3.74905" fill="#344A5E"/>
<rect x="31.5537" y="34.9509" width="8.05993" height="3.74905" fill="#344A5E"/>
<rect x="43.7932" y="34.9509" width="8.05994" height="3.74905" fill="#344A5E"/>
<rect x="56.0322" y="34.9509" width="8.05992" height="3.74905" fill="#344A5E"/>
<path fill-rule="evenodd" clip-rule="evenodd" d="M48.4201 6.20818C41.7035 8.56865 38.2706 15.6502 40.8079 21.8986C43.3453 28.1471 50.9574 31.3407 57.674 28.9802C64.3907 26.6197 67.8235 19.5382 65.2862 13.2897C62.7489 7.0413 55.1367 3.84771 48.4201 6.20818ZM42.1514 22.0375L46.4798 20.5101C47.226 22.3153 48.1216 23.8426 49.1664 25.0923L45.7336 26.342C44.2409 25.2311 42.8976 23.8426 42.1514 22.0375ZM49.4651 7.04128L50.9577 10.9292L54.8384 9.54064C53.0473 7.73551 51.1069 6.76362 49.4651 7.04128ZM55.5847 10.5128C56.6295 11.7625 57.6742 13.2899 58.4206 15.095L53.3458 16.9001L51.4054 12.0402L55.5847 10.5128ZM49.7637 11.3458L48.2711 7.45791C46.7785 8.29103 46.0322 10.2349 46.0322 12.7343L49.7637 11.3458ZM50.2113 12.4566L52.1517 17.3164L47.0769 19.1215C46.4798 17.3164 46.0321 15.5114 45.8829 13.9839L50.2113 12.4566ZM41.7035 20.9267L46.0319 19.3993C45.2857 17.7331 44.987 15.9281 44.8379 14.2617L41.405 15.5114C40.9572 17.3165 41.1064 19.1216 41.7035 20.9267ZM47.5245 20.0936L52.5994 18.2885L54.5396 23.1483L50.3603 24.6757C49.3156 23.4261 48.4201 21.8986 47.5245 20.0936ZM56.48 28.1472L54.9874 24.2592L51.1067 25.6478C52.8978 27.453 54.8382 28.4248 56.48 28.1472ZM57.8237 27.7305L56.3311 23.8427L60.0626 22.4541C59.9133 24.9535 59.167 26.8974 57.8237 27.7305ZM53.7937 17.872L55.734 22.7318L60.0625 21.2045C59.9132 19.6771 59.4655 17.872 58.8685 16.0668L53.7937 17.872ZM59.9133 15.789L64.2417 14.2617C64.8388 16.0668 64.9879 17.8719 64.5402 19.677L61.1073 20.9267C61.1073 19.2605 60.6595 17.5942 59.9133 15.789ZM56.9279 10.0962C57.9728 11.3459 58.8683 12.8733 59.6145 14.6785L63.943 13.1511C63.1967 11.3459 61.8534 9.95734 60.3608 8.84654L56.9279 10.0962ZM59.0175 8.15205L56.0324 9.12408C54.9876 7.87438 53.7935 7.04125 52.4502 6.48579C54.8383 6.48579 57.0771 7.04125 59.0175 8.15205ZM44.838 13.151C44.838 11.4848 45.1365 10.0962 45.5843 8.98537C43.6439 10.374 42.4499 12.1791 41.7036 14.2618L44.838 13.151ZM46.9277 27.1752L50.0621 26.0644C51.107 27.1752 52.301 28.1472 53.495 28.7027C51.2561 28.7025 48.8681 28.1471 46.9277 27.1752ZM61.2563 22.0377C61.2563 23.7039 60.9579 25.0925 60.5101 26.2033C62.3012 24.8147 63.6445 23.0097 64.3908 20.9269L61.2563 22.0377Z" fill="#344A5E"/>
<path fill-rule="evenodd" clip-rule="evenodd" d="M9.91706 12.8642H7.08474V6.55757H9.61896C10.0662 6.55757 10.3643 6.55757 10.8115 6.70094L10.814 6.70215L10.814 6.70215C11.1113 6.84513 11.4083 6.98797 11.5568 7.13095C11.8549 7.41757 12.0041 7.84757 12.0041 8.27757C12.0041 8.70757 11.8549 9.13757 11.5568 9.42419C11.4079 9.56757 11.4079 9.56757 11.2587 9.56757C11.2587 9.56757 11.1096 9.56757 10.9606 9.71095C11.4079 9.85433 11.706 9.99757 11.8551 10.2843C12.1532 10.571 12.1532 10.8577 12.1532 11.2877C12.1532 11.7177 12.0041 12.1477 11.706 12.4343L11.7058 12.4344C11.4077 12.5777 10.8114 12.8642 9.91706 12.8642ZM8.57524 9.13741H9.32057C9.76779 9.13741 10.0659 9.13741 10.215 8.99403C10.3641 8.85066 10.5131 8.70741 10.5131 8.42066C10.5131 8.13417 10.3643 7.99093 10.2154 7.84768L10.215 7.84728C10.081 7.84728 9.94701 7.81831 9.79945 7.78642C9.61871 7.74736 9.41766 7.7039 9.17145 7.7039H8.5751V9.13741H8.57524ZM9.61867 11.574H8.5751V10.1405H9.46954C9.91677 10.1405 10.3641 10.1405 10.5131 10.2839L10.5135 10.2843C10.6624 10.4275 10.8112 10.5708 10.8112 10.8573C10.8112 11.144 10.6622 11.2873 10.5131 11.4306C10.364 11.574 10.0659 11.574 9.61867 11.574Z" fill="white"/>
<path fill-rule="evenodd" clip-rule="evenodd" d="M17.5198 11.5741L18.1161 12.8641H19.6069L16.7744 6.5575H15.4328L12.6003 12.8641H14.091L14.6873 11.5741H17.5198ZM15.2837 10.2843L16.029 8.42086L16.9234 10.2843H15.2837Z" fill="white"/>
<path d="M24.8243 6.5575H26.3151V12.8641H24.8243L21.6937 8.99413V12.8641H20.203V6.5575H21.5446L24.6752 10.5709V6.5575H24.8243Z" fill="white"/>
<path d="M27.955 6.5575H29.4458V9.13751L31.8311 6.5575H33.6199L31.0856 9.28089C31.2347 9.56751 31.6819 10.1409 32.2781 11.0009C32.8745 11.8609 33.3217 12.4343 33.6198 12.8643H31.98L30.042 10.4275L29.4457 11.1441V12.8641H27.955V6.5575Z" fill="white"/>
<path d="M19.5105 18.275H8.47523C7.56822 18.275 6.9635 19.0338 6.9635 19.7927V29.6573C6.9635 30.5679 7.71929 31.175 8.47523 31.175H19.3594C20.2664 31.175 20.8711 30.4162 20.8711 29.6573V19.7927C21.0222 19.0339 20.2664 18.275 19.5105 18.275Z" fill="#FFD15C"/>
</g>
<defs>
<linearGradient id="paint0_linear_0_1120" x1="53.9675" y1="-14.0209" x2="25.8095" y2="22.1065" gradientUnits="userSpaceOnUse">
<stop stop-color="#68B6F3"/>
<stop offset="1" stop-color="#3F2F8C"/>
</linearGradient>
</defs>
</svg>
