<svg width="12" height="13" viewBox="0 0 12 13" fill="none" xmlns="http://www.w3.org/2000/svg">
<path d="M6 0.8125C4.90638 0.813898 3.85792 1.28516 3.08461 2.12291C2.31131 2.96066 1.87629 4.09649 1.875 5.28125C1.87369 6.24943 2.16562 7.19135 2.706 7.9625C2.706 7.9625 2.8185 8.12297 2.83688 8.14612L6 12.1875L9.16463 8.14409C9.18113 8.12256 9.294 7.9625 9.294 7.9625L9.29438 7.96128C9.83449 7.19047 10.1263 6.24899 10.125 5.28125C10.1237 4.09649 9.6887 2.96066 8.9154 2.12291C8.14209 1.28516 7.09363 0.813898 6 0.8125ZM6 6.90625C5.70333 6.90625 5.41332 6.81095 5.16665 6.63239C4.91998 6.45383 4.72772 6.20004 4.61419 5.90311C4.50065 5.60618 4.47095 5.27945 4.52883 4.96423C4.5867 4.64901 4.72957 4.35946 4.93934 4.1322C5.14912 3.90494 5.4164 3.75017 5.70737 3.68747C5.99834 3.62477 6.29994 3.65695 6.57403 3.77995C6.84812 3.90294 7.08239 4.11122 7.24721 4.37845C7.41203 4.64568 7.5 4.95986 7.5 5.28125C7.49951 5.71206 7.34131 6.12507 7.06012 6.4297C6.77892 6.73433 6.39768 6.90571 6 6.90625Z" fill="#C63135"/>
</svg>
