<svg width="24" height="24" viewBox="0 0 24 24" fill="none" xmlns="http://www.w3.org/2000/svg">
<path d="M2.50129 9.56594L2.50131 9.56546C2.50681 9.46544 2.54241 9.36942 2.60343 9.28998C2.66445 9.21054 2.74806 9.1514 2.84328 9.12031L2.84413 9.12003L19.8732 3.52529C19.8738 3.52512 19.8743 3.52494 19.8749 3.52477C20.0611 3.46594 20.2574 3.51498 20.3869 3.6449C20.5201 3.77864 20.5674 3.97715 20.5089 4.1564C20.5089 4.15649 20.5088 4.15659 20.5088 4.15668L14.9141 21.1878C14.8827 21.2833 14.8232 21.3671 14.7435 21.4282C14.6649 21.4886 14.5702 21.5241 14.4714 21.5305L14.4308 21.532C14.24 21.5292 14.065 21.4166 13.9835 21.2405C13.9834 21.2403 13.9833 21.24 13.9832 21.2398L10.5415 13.7375L10.4642 13.5689L10.2955 13.4915L2.79198 10.0497C2.79193 10.0497 2.79189 10.0497 2.79184 10.0497C2.60502 9.9637 2.48974 9.77229 2.50129 9.56594Z" fill="white" stroke="white"/>
</svg>
