<svg width="32" height="32" viewBox="0 0 32 32" fill="none" xmlns="http://www.w3.org/2000/svg">
<path fill-rule="evenodd" clip-rule="evenodd" d="M4.66669 13.757C4.66669 7.62388 9.79186 2.66669 15.9913 2.66669C22.2082 2.66669 27.3334 7.62388 27.3334 13.757C27.3334 16.8476 26.2094 19.7169 24.3594 22.1488C22.3184 24.8314 19.8029 27.1686 16.9714 29.0033C16.3234 29.4272 15.7385 29.4592 15.0273 29.0033C12.1797 27.1686 9.66414 24.8314 7.64069 22.1488C5.78933 19.7169 4.66669 16.8476 4.66669 13.757ZM12.259 14.1024C12.259 16.157 13.9356 17.7729 15.9913 17.7729C18.0483 17.7729 19.741 16.157 19.741 14.1024C19.741 12.0637 18.0483 10.3691 15.9913 10.3691C13.9356 10.3691 12.259 12.0637 12.259 14.1024Z" fill="#F98600"/>
</svg>
