<svg width="24" height="24" viewBox="0 0 24 24" fill="none" xmlns="http://www.w3.org/2000/svg">
<path d="M13.9996 16.5C14.127 16.5001 14.2496 16.5489 14.3422 16.6364C14.4349 16.7239 14.4907 16.8435 14.4981 16.9707C14.5056 17.0979 14.4642 17.2232 14.3824 17.3209C14.3032 17.4155 14.192 17.4774 14.0701 17.4949L13.9852 17.5H10.0007C9.87323 17.4999 9.75065 17.4511 9.65798 17.3636C9.56531 17.2761 9.50955 17.1565 9.50208 17.0293C9.49461 16.9021 9.536 16.7768 9.6178 16.6791C9.69699 16.5845 9.80827 16.5226 9.93012 16.5051L10.0151 16.5H13.9996ZM15.9996 11.5C15.9997 11.5 15.9998 11.5 15.9999 11.5C16.1272 11.5002 16.2497 11.549 16.3422 11.6364C16.4349 11.7239 16.4907 11.8435 16.4981 11.9707C16.5056 12.0979 16.4642 12.2232 16.3824 12.3209C16.3032 12.4155 16.192 12.4774 16.0701 12.4949L15.9852 12.5L8.00067 12.5C8.00056 12.5 8.00045 12.5 8.00034 12.5C7.87301 12.4998 7.75057 12.451 7.65798 12.3636C7.56532 12.2761 7.50955 12.1565 7.50208 12.0293C7.49461 11.9021 7.536 11.7768 7.6178 11.6791C7.69699 11.5845 7.80827 11.5226 7.93012 11.5051L8.01505 11.5L15.9996 11.5ZM18.9998 6.5C19.1271 6.5002 19.2496 6.54899 19.3422 6.63642C19.4349 6.72391 19.4907 6.84348 19.4981 6.9707C19.5056 7.09792 19.4642 7.22319 19.3824 7.32092C19.3032 7.41553 19.192 7.47742 19.0701 7.49492L18.9852 7.5H5.00041C4.87306 7.49979 4.75059 7.451 4.65798 7.36358C4.56532 7.27609 4.50955 7.15652 4.50208 7.0293C4.49461 6.90208 4.536 6.77681 4.6178 6.67908C4.69699 6.58447 4.80827 6.52258 4.93012 6.50508L5.01506 6.5H18.9998Z" fill="#C63135" stroke="#C63135"/>
</svg>
