<svg width="16" height="16" viewBox="0 0 16 16" fill="none" xmlns="http://www.w3.org/2000/svg">
<path fill-rule="evenodd" clip-rule="evenodd" d="M7.70705 7.70702C7.31638 8.09769 6.68371 8.09769 6.29305 7.70702C5.90238 7.31635 5.90238 6.68302 6.29305 6.29302C6.68371 5.90235 7.31638 5.90235 7.70705 6.29302C8.09771 6.68302 8.09771 7.31635 7.70705 7.70702ZM14.3117 7.72103L10.0337 3.44303C9.92371 3.33303 9.77904 3.26503 9.62437 3.25103L3.39504 2.6697C3.19704 2.6497 3.00237 2.72103 2.86171 2.8617C2.72104 3.00236 2.65104 3.1977 2.66904 3.39503L3.25037 9.62436C3.26571 9.77903 3.33304 9.92436 3.44304 10.0337L7.72104 14.3124C7.95771 14.5477 8.26771 14.6657 8.57771 14.6657C8.88771 14.6657 9.19771 14.5477 9.43437 14.3117L14.3117 9.43436C14.5404 9.20636 14.6664 8.9017 14.6664 8.5777C14.6664 8.2537 14.5404 7.9497 14.3117 7.72103Z" fill="#156778"/>
<mask id="mask0_0_1965" style="mask-type:luminance" maskUnits="userSpaceOnUse" x="2" y="2" width="13" height="13">
<path fill-rule="evenodd" clip-rule="evenodd" d="M7.70705 7.70702C7.31638 8.09769 6.68371 8.09769 6.29305 7.70702C5.90238 7.31635 5.90238 6.68302 6.29305 6.29302C6.68371 5.90235 7.31638 5.90235 7.70705 6.29302C8.09771 6.68302 8.09771 7.31635 7.70705 7.70702ZM14.3117 7.72103L10.0337 3.44303C9.92371 3.33303 9.77904 3.26503 9.62437 3.25103L3.39504 2.6697C3.19704 2.6497 3.00237 2.72103 2.86171 2.8617C2.72104 3.00236 2.65104 3.1977 2.66904 3.39503L3.25037 9.62436C3.26571 9.77903 3.33304 9.92436 3.44304 10.0337L7.72104 14.3124C7.95771 14.5477 8.26771 14.6657 8.57771 14.6657C8.88771 14.6657 9.19771 14.5477 9.43437 14.3117L14.3117 9.43436C14.5404 9.20636 14.6664 8.9017 14.6664 8.5777C14.6664 8.2537 14.5404 7.9497 14.3117 7.72103Z" fill="white"/>
</mask>
<g mask="url(#mask0_0_1965)">
<rect width="16" height="16" fill="#156778"/>
</g>
</svg>
