<svg width="20" height="20" viewBox="0 0 20 20" fill="none" xmlns="http://www.w3.org/2000/svg">
<path d="M11.6661 13.8462C11.7478 13.8462 11.8264 13.8775 11.8858 13.9336C11.9452 13.9897 11.9809 14.0663 11.9857 14.1479C11.9905 14.2294 11.964 14.3097 11.9115 14.3724C11.8616 14.4321 11.7917 14.4714 11.715 14.4834L11.6514 14.4872H8.33392C8.25223 14.4871 8.17365 14.4558 8.11425 14.3997C8.05485 14.3436 8.0191 14.267 8.01431 14.1855C8.00952 14.1039 8.03606 14.0236 8.08849 13.961C8.13845 13.9013 8.20834 13.8619 8.28501 13.85L8.34868 13.8462H11.6661ZM13.3328 9.67949C13.3329 9.67949 13.333 9.67949 13.3331 9.67949C13.4147 9.67966 13.4931 9.71093 13.5524 9.76694L13.9045 9.39404L13.5524 9.76694C13.6119 9.82302 13.6476 9.89966 13.6524 9.98122C13.6572 10.0628 13.6306 10.1431 13.5782 10.2057C13.5282 10.2654 13.4584 10.3048 13.3817 10.3167L13.318 10.3205L6.66725 10.3205C6.66715 10.3205 6.66705 10.3205 6.66694 10.3205C6.58536 10.3203 6.50691 10.2891 6.44758 10.2331C6.38818 10.177 6.35243 10.1003 6.34764 10.0188C6.34286 9.93723 6.36939 9.85693 6.42182 9.79429C6.47179 9.73459 6.54168 9.69522 6.61834 9.6833L6.68201 9.67949L13.3328 9.67949ZM15.833 5.51282C15.9146 5.51297 15.9931 5.54424 16.0524 5.60027C16.1119 5.65635 16.1476 5.733 16.1524 5.81455C16.1572 5.8961 16.1306 5.9764 16.0782 6.03905C16.0282 6.09875 15.9584 6.13811 15.8817 6.15004L15.818 6.15385H4.16701C4.0854 6.15369 4.00692 6.12242 3.94758 6.0664C3.88818 6.01032 3.85243 5.93367 3.84764 5.85212C3.84286 5.77057 3.86939 5.69026 3.92182 5.62762C3.97179 5.56792 4.04168 5.52855 4.11834 5.51663L4.18201 5.51282H15.833Z" fill="#C63135" stroke="#C63135"/>
</svg>
