<svg width="20" height="20" viewBox="0 0 20 20" fill="none" xmlns="http://www.w3.org/2000/svg">
<path fill-rule="evenodd" clip-rule="evenodd" d="M1.66667 10.0125C1.66667 5.62256 5.17501 1.66663 10.0167 1.66663C14.75 1.66663 18.3333 5.54745 18.3333 9.98744C18.3333 15.1368 14.1333 18.3333 10 18.3333C8.63334 18.3333 7.11667 17.9661 5.90001 17.2483C5.47501 16.9896 5.11667 16.7977 4.65834 16.9479L2.97501 17.4486C2.55001 17.5822 2.16667 17.2483 2.29167 16.7977L2.85001 14.9282C2.94167 14.6695 2.92501 14.3941 2.79167 14.1771C2.07501 12.8584 1.66667 11.4146 1.66667 10.0125ZM8.91667 10.0125C8.91667 10.605 9.39167 11.0807 9.98334 11.0891C10.575 11.0891 11.05 10.605 11.05 10.0208C11.05 9.42827 10.575 8.95255 9.98334 8.95255C9.4 8.94421 8.91667 9.42827 8.91667 10.0125ZM12.7583 10.0208C12.7583 10.605 13.2333 11.0891 13.825 11.0891C14.4167 11.0891 14.8917 10.605 14.8917 10.0208C14.8917 9.42827 14.4167 8.95256 13.825 8.95256C13.2333 8.95256 12.7583 9.42827 12.7583 10.0208ZM6.14167 11.0891C5.55834 11.0891 5.07501 10.605 5.07501 10.0208C5.07501 9.42827 5.55001 8.95256 6.14167 8.95256C6.73334 8.95256 7.20834 9.42827 7.20834 10.0208C7.20834 10.605 6.73334 11.0807 6.14167 11.0891Z" fill="#C63135"/>
</svg>
