<svg width="153" height="146" viewBox="0 0 153 146" fill="none" xmlns="http://www.w3.org/2000/svg">
<g filter="url(#filter0_f_0_847)">
<rect x="36" y="36" width="81" height="73.6364" rx="36.8182" fill="#FF4B35" fill-opacity="0.79"/>
</g>
<circle cx="76.0911" cy="66.2727" r="36.8182" fill="#C63135"/>
<path d="M62.1816 63.9545C61.3532 63.9545 60.6816 64.6261 60.6816 65.4545C60.6816 66.283 61.3532 66.9545 62.1816 66.9545L62.1816 63.9545ZM91.0605 66.5152C91.6463 65.9294 91.6463 64.9797 91.0605 64.3939L81.5145 54.8479C80.9288 54.2621 79.979 54.2621 79.3932 54.8479C78.8074 55.4337 78.8074 56.3835 79.3932 56.9692L87.8785 65.4545L79.3932 73.9398C78.8074 74.5256 78.8074 75.4753 79.3932 76.0611C79.979 76.6469 80.9288 76.6469 81.5145 76.0611L91.0605 66.5152ZM62.1816 66.9545L89.9998 66.9545L89.9998 63.9545L62.1816 63.9545L62.1816 66.9545Z" fill="white"/>
<defs>
<filter id="filter0_f_0_847" x="0" y="0" width="153" height="145.636" filterUnits="userSpaceOnUse" color-interpolation-filters="sRGB">
<feFlood flood-opacity="0" result="BackgroundImageFix"/>
<feBlend mode="normal" in="SourceGraphic" in2="BackgroundImageFix" result="shape"/>
<feGaussianBlur stdDeviation="18" result="effect1_foregroundBlur_0_847"/>
</filter>
</defs>
</svg>
