<svg width="26" height="24" viewBox="0 0 26 24" fill="none" xmlns="http://www.w3.org/2000/svg">
<ellipse cx="12.5009" cy="7.27803" rx="5.15845" ry="4.77803" stroke="#200E32" stroke-width="1.5" stroke-linecap="round" stroke-linejoin="round"/>
<path fill-rule="evenodd" clip-rule="evenodd" d="M4.3185 18.7014C4.31711 18.3655 4.39821 18.0338 4.55567 17.7312C5.04977 16.8158 6.44315 16.3307 7.59935 16.111C8.43321 15.9462 9.27858 15.8361 10.1292 15.7815C11.704 15.6534 13.2879 15.6534 14.8627 15.7815C15.7132 15.8367 16.5585 15.9468 17.3925 16.111C18.5487 16.3307 19.9421 16.7701 20.4362 17.7312C20.7528 18.348 20.7528 19.064 20.4362 19.6808C19.9421 20.6419 18.5487 21.0813 17.3925 21.2918C16.5596 21.4635 15.714 21.5767 14.8627 21.6305C13.5809 21.7311 12.2932 21.7495 11.0087 21.6854C10.7122 21.6854 10.4256 21.6854 10.1292 21.6305C9.28109 21.5773 8.43865 21.4641 7.60924 21.2918C6.44315 21.0813 5.05966 20.6419 4.55567 19.6808C4.39902 19.3747 4.318 19.0402 4.3185 18.7014Z" stroke="#200E32" stroke-width="1.5" stroke-linecap="round" stroke-linejoin="round"/>
</svg>
