<svg width="20" height="20" viewBox="0 0 20 20" fill="none" xmlns="http://www.w3.org/2000/svg">
<path d="M10 4.16669C3.63917 4.16669 1.72751 9.68085 1.71001 9.73669L1.62167 10L1.70917 10.2634C1.72751 10.3192 3.63917 15.8334 10 15.8334C16.3608 15.8334 18.2725 10.3192 18.29 10.2634L18.3783 10L18.2908 9.73669C18.2725 9.68085 16.3608 4.16669 10 4.16669ZM10 13.3334C8.16167 13.3334 6.66667 11.8384 6.66667 10C6.66667 8.16169 8.16167 6.66669 10 6.66669C11.8383 6.66669 13.3333 8.16169 13.3333 10C13.3333 11.8384 11.8383 13.3334 10 13.3334Z" fill="#ADB3BC"/>
<path d="M10 8.33331C9.09666 8.33331 8.33333 9.09665 8.33333 9.99998C8.33333 10.9033 9.09666 11.6666 10 11.6666C10.9033 11.6666 11.6667 10.9033 11.6667 9.99998C11.6667 9.09665 10.9033 8.33331 10 8.33331Z" fill="#ADB3BC"/>
</svg>
