<svg width="32" height="32" viewBox="0 0 32 32" fill="none" xmlns="http://www.w3.org/2000/svg">
<path fill-rule="evenodd" clip-rule="evenodd" d="M4.66675 13.757C4.66675 7.62381 9.79192 2.66663 15.9913 2.66663C22.2082 2.66663 27.3334 7.62381 27.3334 13.757C27.3334 16.8475 26.2094 19.7168 24.3594 22.1487C22.3185 24.8313 19.803 27.1686 16.9715 29.0032C16.3234 29.4272 15.7386 29.4592 15.0273 29.0032C12.1797 27.1686 9.6642 24.8313 7.64075 22.1487C5.78939 19.7168 4.66675 16.8475 4.66675 13.757ZM12.2591 14.1023C12.2591 16.1569 13.9356 17.7729 15.9913 17.7729C18.0484 17.7729 19.7411 16.1569 19.7411 14.1023C19.7411 12.0637 18.0484 10.3691 15.9913 10.3691C13.9356 10.3691 12.2591 12.0637 12.2591 14.1023Z" fill="#C63135"/>
</svg>
