<svg width="26" height="24" viewBox="0 0 26 24" fill="none" xmlns="http://www.w3.org/2000/svg">
<path fill-rule="evenodd" clip-rule="evenodd" d="M3.22841 4.87254C3.56991 4.34878 5.45152 2.44376 6.79426 2.50127C7.19564 2.53208 7.55046 2.75699 7.83874 3.01784C8.50069 3.61656 10.3956 5.88101 10.5032 6.35753C10.7648 7.52621 9.26131 8.1999 9.72146 9.37783C10.8946 12.0366 12.9159 13.9088 15.7876 14.9943C17.0583 15.4205 17.7857 14.0279 19.0475 14.2713C19.5608 14.3709 22.0068 16.126 22.6532 16.7391C22.9338 17.0051 23.1777 17.3347 23.211 17.7065C23.2609 19.0159 21.0765 20.7833 20.6508 21.0092C19.6462 21.6747 18.3356 21.6634 16.7379 20.9753C12.2794 19.2572 5.15437 12.7822 3.265 8.49669C2.54207 7.02505 2.49217 5.80297 3.22841 4.87254Z" stroke="#200E32" stroke-width="1.5" stroke-linecap="round" stroke-linejoin="round"/>
</svg>
