<svg width="17" height="17" viewBox="0 0 17 17" fill="none" xmlns="http://www.w3.org/2000/svg">
<path fill-rule="evenodd" clip-rule="evenodd" d="M9.20835 7.79167C7.88813 7.79167 6.77881 6.8887 6.46428 5.66667H1.41669V4.25H6.46428C6.77881 3.02796 7.88813 2.125 9.20835 2.125C10.7732 2.125 12.0417 3.39353 12.0417 4.95833C12.0417 6.52314 10.7732 7.79167 9.20835 7.79167ZM13.4584 4.25H15.5834V5.66667H13.4584V4.25ZM5.66669 14.875C4.34647 14.875 3.23715 13.972 2.92262 12.75H1.41669V11.3333H2.92262C3.23715 10.1113 4.34647 9.20833 5.66669 9.20833C7.23149 9.20833 8.50002 10.4769 8.50002 12.0417C8.50002 13.6065 7.23149 14.875 5.66669 14.875ZM9.91669 12.75H15.5834V11.3333H9.91669V12.75ZM7.08335 12.0417C7.08335 12.8241 6.44909 13.4583 5.66669 13.4583C4.88428 13.4583 4.25002 12.8241 4.25002 12.0417C4.25002 11.2593 4.88428 10.625 5.66669 10.625C6.44909 10.625 7.08335 11.2593 7.08335 12.0417ZM10.625 4.95833C10.625 5.74074 9.99076 6.375 9.20835 6.375C8.42595 6.375 7.79169 5.74074 7.79169 4.95833C7.79169 4.17593 8.42595 3.54167 9.20835 3.54167C9.99076 3.54167 10.625 4.17593 10.625 4.95833Z" fill="#C63135"/>
</svg>
