<svg width="18" height="17" viewBox="0 0 18 17" fill="none" xmlns="http://www.w3.org/2000/svg">
<g clip-path="url(#clip0_0_1066)">
<path fill-rule="evenodd" clip-rule="evenodd" d="M0 4.24997C0 3.68638 0.232412 3.14588 0.646108 2.74737C1.0598 2.34885 1.6209 2.12497 2.20595 2.12497H15.4417C16.0267 2.12497 16.5878 2.34885 17.0015 2.74737C17.4152 3.14588 17.6476 3.68638 17.6476 4.24997V12.75C17.6476 13.3136 17.4152 13.8541 17.0015 14.2526C16.5878 14.6511 16.0267 14.875 15.4417 14.875H2.20595C1.6209 14.875 1.0598 14.6511 0.646108 14.2526C0.232412 13.8541 0 13.3136 0 12.75V4.24997ZM2.75744 5.31247C2.61118 5.31247 2.4709 5.36844 2.36748 5.46807C2.26406 5.5677 2.20595 5.70282 2.20595 5.84372V6.90622C2.20595 7.04712 2.26406 7.18224 2.36748 7.28187C2.4709 7.3815 2.61118 7.43747 2.75744 7.43747H4.96339C5.10966 7.43747 5.24993 7.3815 5.35335 7.28187C5.45678 7.18224 5.51488 7.04712 5.51488 6.90622V5.84372C5.51488 5.70282 5.45678 5.5677 5.35335 5.46807C5.24993 5.36844 5.10966 5.31247 4.96339 5.31247H2.75744ZM2.75744 8.49997C2.61118 8.49997 2.4709 8.55594 2.36748 8.65557C2.26406 8.7552 2.20595 8.89032 2.20595 9.03122C2.20595 9.17212 2.26406 9.30724 2.36748 9.40687C2.4709 9.5065 2.61118 9.56247 2.75744 9.56247H8.27232C8.41858 9.56247 8.55886 9.5065 8.66228 9.40687C8.76571 9.30724 8.82381 9.17212 8.82381 9.03122C8.82381 8.89032 8.76571 8.7552 8.66228 8.65557C8.55886 8.55594 8.41858 8.49997 8.27232 8.49997H2.75744ZM2.75744 10.625C2.61118 10.625 2.4709 10.6809 2.36748 10.7806C2.26406 10.8802 2.20595 11.0153 2.20595 11.1562C2.20595 11.2971 2.26406 11.4322 2.36748 11.5319C2.4709 11.6315 2.61118 11.6875 2.75744 11.6875H3.86042C4.00668 11.6875 4.14695 11.6315 4.25038 11.5319C4.3538 11.4322 4.4119 11.2971 4.4119 11.1562C4.4119 11.0153 4.3538 10.8802 4.25038 10.7806C4.14695 10.6809 4.00668 10.625 3.86042 10.625H2.75744ZM6.06637 10.625C5.9201 10.625 5.77983 10.6809 5.67641 10.7806C5.57298 10.8802 5.51488 11.0153 5.51488 11.1562C5.51488 11.2971 5.57298 11.4322 5.67641 11.5319C5.77983 11.6315 5.9201 11.6875 6.06637 11.6875H7.16934C7.31561 11.6875 7.45588 11.6315 7.55931 11.5319C7.66273 11.4322 7.72083 11.2971 7.72083 11.1562C7.72083 11.0153 7.66273 10.8802 7.55931 10.7806C7.45588 10.6809 7.31561 10.625 7.16934 10.625H6.06637ZM9.3753 10.625C9.22903 10.625 9.08876 10.6809 8.98534 10.7806C8.88191 10.8802 8.82381 11.0153 8.82381 11.1562C8.82381 11.2971 8.88191 11.4322 8.98534 11.5319C9.08876 11.6315 9.22903 11.6875 9.3753 11.6875H10.4783C10.6245 11.6875 10.7648 11.6315 10.8682 11.5319C10.9717 11.4322 11.0298 11.2971 11.0298 11.1562C11.0298 11.0153 10.9717 10.8802 10.8682 10.7806C10.7648 10.6809 10.6245 10.625 10.4783 10.625H9.3753ZM12.6842 10.625C12.538 10.625 12.3977 10.6809 12.2943 10.7806C12.1908 10.8802 12.1327 11.0153 12.1327 11.1562C12.1327 11.2971 12.1908 11.4322 12.2943 11.5319C12.3977 11.6315 12.538 11.6875 12.6842 11.6875H13.7872C13.9335 11.6875 14.0737 11.6315 14.1772 11.5319C14.2806 11.4322 14.3387 11.2971 14.3387 11.1562C14.3387 11.0153 14.2806 10.8802 14.1772 10.7806C14.0737 10.6809 13.9335 10.625 13.7872 10.625H12.6842Z" fill="white"/>
</g>
<defs>
<clipPath id="clip0_0_1066">
<rect width="17.6438" height="16.9963" fill="white"/>
</clipPath>
</defs>
</svg>
